<?xml version="1.0" encoding="utf-8"?>
<svg version="1.1" baseProfile="tiny" id="pi-logo"
	 xmlns="http://www.w3.org/2000/svg" xmlns:xlink="http://www.w3.org/1999/xlink" x="0px" y="0px" viewBox="0 0 50 50"
	 xml:space="preserve">
<path fill="#FFFFFF" d="M25,0C11.2,0,0,11.2,0,25s11.2,25,25,25s25-11.2,25-25S38.8,0,25,0z M20.8,30c-1.8,0-3.5-0.5-5-1.3v8.6
	c0,1.5-1.1,2.8-2.5,2.8s-2.5-1.3-2.5-2.8V12.5c0-1.4,1.1-2.5,2.5-2.5l0,0c1,0,1.9,0.6,2.3,1.5c1.5-0.9,3.3-1.5,5.2-1.5
	c5.5,0,10,4.5,10,10S26.4,30,20.8,30z M36.7,40c-1.4,0-2.5-1.1-2.5-2.5s1.1-2.5,2.5-2.5s2.5,1.1,2.5,2.5S38,40,36.7,40z M39.2,30.5
	c0,1.5-1.1,2.8-2.5,2.8s-2.5-1.3-2.5-2.8V12.8c0-1.5,1.1-2.8,2.5-2.8s2.5,1.3,2.5,2.8V30.5z"/>
<path fill="#FFFFFF" d="M20.8,15c-2.8,0-5,2.2-5,5s2.2,5,5,5s5-2.2,5-5S23.6,15,20.8,15z M20.9,22.6c-1.4,0-2.5-1.1-2.5-2.5
	s1.1-2.5,2.5-2.5s2.5,1.1,2.5,2.5S22.2,22.6,20.9,22.6z"/>
</svg>
